<svg width="256" height="256" viewBox="0 0 256 256" fill="none" xmlns="http://www.w3.org/2000/svg">
  <rect width="256" height="256" rx="48" fill="#F4F7FB"></rect>

  <!-- Document -->
  <path d="M68 48C68 41.3726 73.3726 36 80 36H144L188 80V176C188 182.627 182.627 188 176 188H80C73.3726 188 68 182.627 68 176V48Z" fill="white" stroke="#1E293B" stroke-width="8"></path>
  <path d="M144 36V72C144 76.4183 147.582 80 152 80H188" fill="#E2E8F0"></path>
  <path d="M144 36V72C144 76.4183 147.582 80 152 80H188" stroke="#1E293B" stroke-width="8" stroke-linejoin="round"></path>

  <!-- Report lines -->
  <line x1="90" y1="104" x2="166" y2="104" stroke="#94A3B8" stroke-width="8" stroke-linecap="round"></line>
  <line x1="90" y1="124" x2="154" y2="124" stroke="#94A3B8" stroke-width="8" stroke-linecap="round"></line>

  <!-- Bar chart -->
  <rect x="92" y="148" width="14" height="24" rx="4" fill="#60A5FA"></rect>
  <rect x="114" y="136" width="14" height="36" rx="4" fill="#3B82F6"></rect>
  <rect x="136" y="120" width="14" height="52" rx="4" fill="#2563EB"></rect>

  <!-- Academic badge -->
  <circle cx="184" cy="184" r="32" fill="#10B981" stroke="white" stroke-width="8"></circle>
  <path d="M172 184L180 192L196 176" stroke="white" stroke-width="8" stroke-linecap="round" stroke-linejoin="round"></path>
</svg>